<?xml version="1.0" encoding="utf-8"?>
<!-- Generator: Adobe Illustrator 26.5.0, SVG Export Plug-In . SVG Version: 6.00 Build 0)  -->
<svg version="1.1" id="Layer_1" xmlns="http://www.w3.org/2000/svg" xmlns:xlink="http://www.w3.org/1999/xlink" x="0px" y="0px"
	 viewBox="0 0 154 38" style="enable-background:new 0 0 154 38;" xml:space="preserve">
<style type="text/css">
	.st0{fill:#1E0D50;}
	.st1{fill:#35CB5D;}
	.st2{fill:#4F2DA7;}
	.st3{fill:#8D61FF;}
</style>
<path class="st0" d="M38.7,32.8h-5.2V6.1h16.9V11H38.7v6.6H49v4.8H38.7V32.8z"/>
<path class="st0" d="M58.4,32.8h-5V14.3h5V32.8z M52.8,8.2c0-0.9,0.3-1.6,0.9-2.2c0.6-0.6,1.3-0.9,2.2-0.9c0.9,0,1.6,0.3,2.2,0.9
	C58.7,6.6,59,7.3,59,8.2c0,0.8-0.3,1.5-0.9,2.1c-0.6,0.6-1.3,0.9-2.2,0.9c-0.9,0-1.6-0.3-2.2-0.9C53.1,9.7,52.8,9,52.8,8.2z"/>
<path class="st0" d="M61.4,27.7l4.3-0.9c0.1,0.8,0.4,1.5,0.9,2c0.6,0.5,1.4,0.8,2.4,0.8c0.8,0,1.4-0.2,1.8-0.5
	c0.4-0.4,0.6-0.8,0.6-1.3c0-0.9-0.7-1.5-2-1.8l-2.4-0.6c-1.7-0.4-3-1.1-3.9-2c-0.9-1-1.3-2.1-1.3-3.5c0-1.7,0.7-3.1,2-4.3
	c1.3-1.2,3-1.8,5-1.8c1.3,0,2.4,0.2,3.3,0.6c1,0.4,1.7,0.8,2.2,1.4c0.5,0.6,0.9,1.1,1.2,1.7c0.3,0.6,0.5,1.1,0.5,1.7L71.9,20
	c-0.1-0.7-0.4-1.2-0.9-1.7c-0.5-0.5-1.2-0.8-2.1-0.8c-0.7,0-1.2,0.2-1.7,0.5c-0.5,0.4-0.7,0.8-0.7,1.3c0,0.9,0.6,1.5,1.7,1.7
	l2.6,0.6c1.8,0.4,3.1,1.1,4.1,2.1c1,1,1.4,2.2,1.4,3.6c0,1.7-0.6,3.1-1.9,4.3c-1.3,1.2-3,1.8-5.3,1.8c-1.3,0-2.5-0.2-3.5-0.6
	c-1-0.4-1.8-0.9-2.4-1.5c-0.6-0.6-1-1.2-1.3-1.8C61.7,28.8,61.5,28.2,61.4,27.7z"/>
<path class="st0" d="M97.2,5.5v23.9c0,1.2,0.1,2.4,0.2,3.4h-4.8c-0.1-0.6-0.2-1.3-0.2-2.1c-0.4,0.8-1.1,1.4-2,1.9
	c-0.9,0.5-2,0.7-3.2,0.7c-2.6,0-4.8-0.9-6.5-2.8c-1.7-1.9-2.5-4.2-2.5-7c0-2.7,0.8-5,2.5-6.9c1.7-1.9,3.8-2.8,6.4-2.8
	c2.7,0,4.4,0.8,5.2,2.3V5.5H97.2z M83.2,23.5c0,1.6,0.4,2.9,1.3,3.9c0.9,0.9,2,1.4,3.3,1.4c1.3,0,2.4-0.5,3.3-1.4
	c0.9-1,1.3-2.3,1.3-3.9c0-1.6-0.4-2.9-1.3-3.8c-0.9-0.9-1.9-1.4-3.3-1.4c-1.3,0-2.4,0.5-3.3,1.4C83.6,20.6,83.2,21.9,83.2,23.5z"/>
<path class="st0" d="M106.8,27.4c0.9,0.9,2,1.4,3.3,1.4s2.4-0.5,3.3-1.4c0.9-0.9,1.4-2.2,1.4-3.9c0-1.7-0.5-3-1.4-3.9
	c-0.9-0.9-2-1.4-3.3-1.4s-2.4,0.5-3.3,1.4c-0.9,0.9-1.4,2.2-1.4,3.9C105.4,25.2,105.9,26.5,106.8,27.4z M103.2,16.5
	c1.9-1.9,4.2-2.8,7-2.8c2.8,0,5.1,0.9,6.9,2.8c1.9,1.9,2.8,4.2,2.8,7.1c0,2.8-0.9,5.2-2.8,7.1c-1.8,1.9-4.1,2.8-6.9,2.8
	c-2.8,0-5.1-0.9-7-2.8c-1.8-1.9-2.7-4.2-2.7-7.1C100.4,20.7,101.4,18.4,103.2,16.5z"/>
<path class="st0" d="M128.1,32.8h-5V14.3h4.8v2.3c0.5-0.9,1.2-1.5,2.3-2c1-0.5,2.1-0.8,3.2-0.8c2.7,0,4.5,1,5.5,3.1
	c1.3-2.1,3.3-3.1,5.9-3.1c1.9,0,3.5,0.6,4.7,1.8c1.3,1.2,2,2.9,2,5.3v12h-4.9v-11c0-1.1-0.3-1.9-0.8-2.5c-0.5-0.7-1.3-1-2.4-1
	c-1,0-1.9,0.4-2.5,1.1c-0.6,0.7-0.9,1.6-0.9,2.6v10.9h-5v-11c0-1.1-0.3-1.9-0.8-2.5c-0.6-0.7-1.4-1-2.4-1c-1.1,0-1.9,0.4-2.5,1.1
	c-0.6,0.7-0.9,1.5-0.9,2.6V32.8z"/>
<path class="st1" d="M14.3,22.9V14c0-0.2,0.1-0.3,0.2-0.4L26,5.9c0.3-0.2,0.8,0,0.8,0.4v8.5c0,0.3-0.2,0.7-0.5,0.9l-11.2,7.6
	C14.7,23.5,14.3,23.3,14.3,22.9z"/>
<path class="st2" d="M12.8,32.1V13.5c0-0.2-0.1-0.3-0.2-0.4L1.5,6.2c-0.3-0.2-0.6,0-0.6,0.4v18.8c0,0.2,0.1,0.3,0.2,0.4L12,32.6
	C12.3,32.8,12.8,32.6,12.8,32.1z"/>
<path class="st3" d="M14.3,32.1v-6.2c0-0.2,0.1-0.3,0.2-0.4l7-4.8c0.3-0.2,0.8,0,0.8,0.4V27c0,0.4-0.2,0.8-0.6,1l-6.6,4.5
	C14.7,32.8,14.3,32.5,14.3,32.1z"/>
</svg>
